<svg version="1.1" id="Layer_1" xmlns="http://www.w3.org/2000/svg" xmlns:xlink="http://www.w3.org/1999/xlink" x="0px" y="0px"
	 width="100%" viewBox="0 0 1080 1080" enable-background="new 0 0 1080 1080" xml:space="preserve">
<path fill="#000000" opacity="1.000000" stroke="none" 
	d="
M613.000000,1081.000000 
	C408.690186,1081.000000 204.880371,1081.000000 1.035282,1081.000000 
	C1.035282,721.065063 1.035282,361.130127 1.035282,1.097595 
	C360.893372,1.097595 720.786743,1.097595 1080.840088,1.097595 
	C1080.840088,360.999939 1080.840088,720.999939 1080.840088,1081.000000 
	C925.129639,1081.000000 769.314819,1081.000000 613.000000,1081.000000 
M647.001831,550.500000 
	C647.001831,507.411133 647.001831,464.322296 647.001831,421.232544 
	C616.690491,421.232544 586.938171,421.232544 556.856201,421.232544 
	C556.856201,423.256073 556.856201,425.051300 556.856201,426.846527 
	C556.856201,467.671021 556.792480,508.495758 556.952393,549.319641 
	C556.968872,553.518311 555.786621,554.681030 551.663208,554.584717 
	C540.338501,554.320190 529.003540,554.493469 517.672668,554.493469 
	C489.891815,554.493530 462.110931,554.493469 433.826599,554.493469 
	C433.826599,449.190887 433.826599,343.652008 433.826599,238.294754 
	C403.568787,238.294754 373.815582,238.294754 344.293274,238.294754 
	C344.293274,370.280243 344.293274,501.970703 344.293274,634.041138 
	C415.287720,634.041138 485.867645,634.041138 556.630737,634.041138 
	C556.630737,695.144714 556.630737,755.868774 556.630737,816.754517 
	C632.477600,816.754517 707.701172,816.754517 783.007507,816.754517 
	C783.007507,790.428467 783.007507,764.348450 783.007507,737.835266 
	C737.600098,737.835266 692.398560,737.835266 647.001831,737.835266 
	C647.001831,675.434448 647.001831,613.467224 647.001831,550.500000 
z"/>
<path fill="#FFFFFF" opacity="1.000000" stroke="none" 
	d="
M647.001831,551.000000 
	C647.001831,613.467224 647.001831,675.434448 647.001831,737.835266 
	C692.398560,737.835266 737.600098,737.835266 783.007507,737.835266 
	C783.007507,764.348450 783.007507,790.428467 783.007507,816.754517 
	C707.701172,816.754517 632.477600,816.754517 556.630737,816.754517 
	C556.630737,755.868774 556.630737,695.144714 556.630737,634.041138 
	C485.867645,634.041138 415.287720,634.041138 344.293274,634.041138 
	C344.293274,501.970703 344.293274,370.280243 344.293274,238.294754 
	C373.815582,238.294754 403.568787,238.294754 433.826599,238.294754 
	C433.826599,343.652008 433.826599,449.190887 433.826599,554.493469 
	C462.110931,554.493469 489.891815,554.493530 517.672668,554.493469 
	C529.003540,554.493469 540.338501,554.320190 551.663208,554.584717 
	C555.786621,554.681030 556.968872,553.518311 556.952393,549.319641 
	C556.792480,508.495758 556.856201,467.671021 556.856201,426.846527 
	C556.856201,425.051300 556.856201,423.256073 556.856201,421.232544 
	C586.938171,421.232544 616.690491,421.232544 647.001831,421.232544 
	C647.001831,464.322296 647.001831,507.411133 647.001831,551.000000 
z"/>
</svg>